PathFileType	4	(X/Y/Z)	c:/Users/goper/Files/vsCode/490R/osim_files/C15/C15_SSWS_02.trc
DataRate	CameraRate	NumFrames	NumMarkers	Units                	OrigDataRate	OrigDataStartFrame	OrigNumFrames
250.00	250.00	8	36	mm	250.0	1487	2379
                Frame#	Time	LPSIS			LASIS			LTH1			LTH2			LTH3			LTH4			LLFE			LMFE			LSH1			LSH2			LSH3			LSH4			LLMAL			LMMAL			LCAL			LMTP5			LTOE			LMTP1			RPSIS			RASIS			RTH1			RTH2			RTH3			RTH4			RLFE			RMFE			RSH1			RSH2			RSH3			RSH4			RLMAL			RMMAL			RCAL			RMTP1			RTOE			RMTP5		
		X1	Y1	Z1	X2	Y2	Z2	X3	Y3	Z3	X4	Y4	Z4	X5	Y5	Z5	X6	Y6	Z6	X7	Y7	Z7	X8	Y8	Z8	X9	Y9	Z9	X10	Y10	Z10	X11	Y11	Z11	X12	Y12	Z12	X13	Y13	Z13	X14	Y14	Z14	X15	Y15	Z15	X16	Y16	Z16	X17	Y17	Z17	X18	Y18	Z18	X19	Y19	Z19	X20	Y20	Z20	X21	Y21	Z21	X22	Y22	Z22	X23	Y23	Z23	X24	Y24	Z24	X25	Y25	Z25	X26	Y26	Z26	X27	Y27	Z27	X28	Y28	Z28	X29	Y29	Z29	X30	Y30	Z30	X31	Y31	Z31	X32	Y32	Z32	X33	Y33	Z33	X34	Y34	Z34	X35	Y35	Z35	X36	Y36	Z36

1487	5.94400	-1359.79810	1028.35742	310.01035	-1522.68567	1000.36133	381.52094	-1413.60242	615.37128	427.36978	-1409.41248	569.91418	411.60272	-1464.98523	619.23535	421.96805	-1461.84070	574.57019	411.73224	-1415.82715	491.00925	389.77145	-1418.05371	479.85715	268.52063	-1332.95654	394.64627	399.42493	-1324.77527	350.84024	402.13651	-1393.02441	377.54544	398.33008	-1376.31409	335.62369	401.04034	-1288.16174	93.75024	331.39786	-1309.32983	119.29967	242.94133	-1223.40637	71.13427	286.00021	-1402.94873	40.31517	352.57584	-1460.45850	59.45618	289.11511	-1418.66467	34.70303	231.08701	-1365.08228	1025.54517	189.01137	-1524.21265	1003.47711	131.13942	-1591.55493	656.00415	63.77861	-1612.68555	614.10754	73.00848	-1646.96960	678.29407	76.35468	-1661.17114	632.93408	80.89911	-1653.74536	531.63690	103.66709	-1649.74390	512.53986	219.68246	-1564.49744	435.25397	85.24461	-1561.21008	391.71902	81.53313	-1626.05383	421.16895	81.49862	-1611.24500	380.18912	75.63914	-1555.30334	122.68327	131.27618	-1601.30383	141.24629	213.40132	-1500.11377	104.06528	188.82594	-1701.75745	59.90659	194.30719	-1728.29773	78.60048	135.95210	-1656.02246	50.05438	85.56049
1488	5.94800	-1363.45117	1028.06641	309.63803	-1526.14832	999.91187	381.53775	-1415.35535	615.33331	427.32162	-1411.01270	569.87952	411.48996	-1466.78796	619.06110	422.01187	-1463.58179	574.33295	411.66714	-1416.98962	490.93127	389.85251	-1419.59851	479.73111	268.61649	-1333.87378	394.78030	399.36609	-1325.47729	350.99698	402.08261	-1393.75720	377.40176	398.29865	-1377.04700	335.66406	401.09045	-1288.24609	94.00900	331.33130	-1309.56836	119.45092	242.90587	-1223.59338	71.54765	286.36765	-1402.99060	40.39711	352.67673	-1460.48743	59.44064	289.13968	-1418.65625	34.72052	231.07986	-1369.17871	1025.24121	188.68716	-1528.30920	1003.03735	131.17529	-1595.05212	655.16168	64.52660	-1616.09277	613.28918	73.79585	-1650.45471	677.45502	77.13495	-1664.60815	632.11853	81.64465	-1657.90784	531.14124	103.84041	-1653.09534	511.77277	220.27104	-1570.52832	432.12042	85.49830	-1567.93481	388.79810	81.63602	-1632.05640	420.00873	81.87122	-1618.20288	378.40958	75.94941	-1569.70703	119.60483	132.11082	-1614.82446	139.34154	213.56952	-1514.74329	99.61526	189.01364	-1717.25220	60.20335	194.61658	-1743.35962	79.57213	136.27065	-1671.83936	49.28841	85.83765
1489	5.95200	-1367.23975	1027.75757	309.36264	-1529.60730	999.51038	381.61243	-1417.20984	615.35919	427.27036	-1412.97559	570.14270	411.84296	-1468.64880	618.78912	421.96173	-1465.09131	573.90991	412.04626	-1418.25757	490.80994	389.85333	-1420.85645	479.61438	268.73294	-1334.67725	394.94458	399.30493	-1326.27722	351.14420	401.98782	-1394.43103	377.52002	398.45563	-1377.65320	335.66861	401.11279	-1288.32971	94.26848	331.24933	-1309.74243	119.63219	242.85986	-1223.76697	71.75654	286.33301	-1402.96167	40.35668	352.66165	-1460.51575	59.40401	289.16528	-1418.69446	34.76644	231.08235	-1373.21741	1024.89551	188.29950	-1532.78320	1002.61017	131.30891	-1598.50757	654.27814	65.21686	-1619.29431	612.39636	74.56914	-1653.89478	676.52893	77.87437	-1667.95093	631.17133	82.56396	-1661.49768	530.43329	104.53271	-1656.35974	510.90060	220.75624	-1576.09119	429.28000	85.83170	-1574.78992	385.88419	81.89246	-1637.82068	418.93796	82.25566	-1626.85669	378.50595	76.87966	-1583.04102	117.52834	131.96065	-1628.15405	137.60881	213.84482	-1529.16174	95.47325	188.99910	-1732.56519	60.80389	195.05423	-1758.33142	80.74806	136.73985	-1687.54944	48.89397	86.15352
1490	5.95600	-1370.87292	1027.46106	308.98654	-1533.07605	999.07263	381.64185	-1419.10938	615.36163	427.30106	-1414.42688	570.13464	411.63010	-1470.42432	618.55139	421.98206	-1466.75720	573.81012	411.73672	-1419.43030	490.73236	389.93814	-1422.32788	479.53323	268.80270	-1335.43213	395.11200	399.18881	-1326.99219	351.34503	401.92026	-1395.34326	377.51703	398.52728	-1378.21509	335.71658	401.15158	-1288.42334	94.51470	331.18848	-1309.99402	119.82299	242.83221	-1223.67053	72.22760	286.07108	-1402.96094	40.33590	352.68179	-1460.52258	59.37206	289.19858	-1418.89612	34.80977	231.26463	-1377.35962	1024.46216	187.98383	-1537.06140	1002.17236	131.37292	-1601.82324	653.31226	65.96381	-1622.45923	611.50330	75.40205	-1657.16443	675.47565	78.63889	-1671.21216	630.12970	83.36850	-1664.36572	529.42084	105.75594	-1659.28271	509.92624	221.27161	-1581.62439	426.44257	86.16999	-1581.35669	383.06424	82.13416	-1643.68140	417.80823	82.75359	-1633.79431	377.09943	77.24777	-1597.91174	114.19522	132.49973	-1641.42664	136.06633	214.10844	-1543.66370	91.50089	189.16452	-1747.81799	61.81335	195.54347	-1773.20081	82.35975	137.26305	-1703.31995	48.83352	86.55763
1491	5.96000	-1374.62720	1027.05408	308.58231	-1536.58289	998.67413	381.71149	-1420.97241	615.34235	427.23300	-1415.68274	569.95160	411.41599	-1472.35364	618.33374	421.98291	-1468.41541	573.62238	411.74985	-1420.79236	490.63766	389.98392	-1423.69360	479.37808	268.93192	-1336.33203	395.28769	399.06448	-1327.71289	351.54959	401.86664	-1396.23254	377.43140	398.48853	-1378.92993	335.76163	401.18091	-1288.55103	94.76933	331.13101	-1310.24121	120.04491	242.76653	-1223.90869	72.43419	286.22565	-1403.11926	40.33506	352.82419	-1460.58386	59.36939	289.22885	-1418.93042	34.81680	231.26686	-1381.61768	1023.96472	187.50948	-1540.30737	1001.17322	131.80058	-1604.94922	652.34668	66.55254	-1625.68750	610.42279	76.18946	-1660.40930	674.36694	79.39727	-1674.30127	628.96161	84.22941	-1667.65247	528.52155	106.39683	-1662.33508	508.80475	221.77135	-1586.64673	423.72318	86.36269	-1588.16296	380.21564	82.46013	-1649.30164	416.66620	83.26041	-1640.56177	375.74435	77.67901	-1611.81470	111.70290	132.61732	-1654.63257	134.84435	214.45137	-1558.04443	87.77818	189.16673	-1763.00562	63.15645	196.16115	-1787.95776	84.35261	137.96370	-1719.34119	50.03185	86.57298
1492	5.96400	-1378.36328	1026.66199	308.24182	-1540.14160	998.22729	381.78287	-1422.72791	615.37872	427.25122	-1417.73364	570.41156	411.69525	-1474.29797	618.13440	421.99252	-1470.18347	573.37469	411.74774	-1422.02930	490.60071	390.03165	-1425.20386	479.23486	268.97986	-1337.28198	395.48654	399.07590	-1328.51538	351.71201	401.82657	-1396.91675	377.41974	398.53464	-1379.77905	335.80783	401.21075	-1288.67688	95.01511	331.09741	-1310.50220	120.28239	242.72281	-1223.87805	72.58159	285.70554	-1402.91577	40.06722	352.41873	-1460.63416	59.36802	289.28073	-1418.93921	34.84055	231.26334	-1385.63696	1023.68457	187.24179	-1544.55798	1000.64337	131.86372	-1608.03577	651.27686	67.10743	-1628.74902	609.31879	76.95422	-1663.55103	673.14502	80.07935	-1677.26440	627.72650	84.96138	-1670.81055	527.57690	106.96117	-1665.07104	507.57260	222.12215	-1592.48108	420.88699	86.99241	-1594.70081	377.50809	82.82249	-1654.67078	415.60052	83.66550	-1647.43713	374.36700	78.24211	-1625.78723	109.58393	132.84592	-1667.69458	133.82036	214.81544	-1572.51453	84.23943	189.21201	-1777.84521	64.85671	196.50626	-1802.58301	86.68974	138.74597	-1734.77673	49.76611	87.60112
1493	5.96800	-1382.20520	1026.25623	307.87689	-1543.72754	997.86926	381.83936	-1424.65173	615.37952	427.25247	-1419.55505	570.25061	411.69989	-1476.16150	617.92181	422.05194	-1471.88782	573.21936	411.82419	-1423.38623	490.52042	390.09326	-1427.55969	478.99460	270.56882	-1338.10901	395.74307	398.92883	-1329.41418	351.91055	401.71716	-1397.92737	377.44824	398.65097	-1380.45435	335.84625	401.26224	-1288.80835	95.31552	331.03943	-1310.75415	120.50232	242.66632	-1224.02869	72.92339	285.62204	-1402.93152	40.05923	352.45963	-1460.67932	59.33594	289.30386	-1418.98328	34.84861	231.28143	-1389.84998	1023.20032	186.89139	-1548.81458	1000.10858	131.95761	-1611.21497	650.11243	67.62016	-1631.53235	608.14661	77.45738	-1666.68311	671.89685	80.68372	-1680.30469	626.47290	85.61122	-1674.10266	526.54089	107.50426	-1667.69446	506.21710	222.52861	-1597.83118	418.18268	87.39626	-1601.29053	374.81647	83.15674	-1660.20728	414.58466	84.20409	-1653.83350	373.16418	78.67264	-1639.72546	107.75336	133.17557	-1680.50293	132.95850	215.33299	-1586.86304	80.92027	189.29710	-1792.61536	66.81017	197.20061	-1817.01477	89.46715	139.66660	-1750.39111	50.70714	88.26344
1494	5.97200	-1385.87610	1025.83228	307.49191	-1547.26184	997.43726	381.92404	-1426.52747	615.41046	427.29047	-1421.20642	570.24445	411.74460	-1478.05139	617.68188	422.04623	-1473.79211	572.87366	411.78452	-1424.81934	490.44324	390.15710	-1429.19214	478.88641	270.64716	-1339.00317	395.92990	398.79028	-1330.10132	352.14252	401.64026	-1398.69849	377.46063	398.70078	-1381.09412	335.97116	401.30280	-1288.89795	95.60001	330.96609	-1310.96667	120.74430	242.59058	-1224.14221	73.27705	285.55670	-1402.97986	40.20604	352.59161	-1460.72412	59.30574	289.33868	-1418.98071	34.84779	231.29974	-1394.02576	1022.59973	186.42670	-1553.36401	999.64240	132.12976	-1614.17383	649.02899	67.98800	-1634.35840	606.90765	78.03828	-1669.67493	670.54279	82.58391	-1682.97534	625.03101	86.28561	-1677.28149	525.45642	108.03934	-1670.34705	504.85367	222.92232	-1603.18225	415.49789	87.82487	-1607.74011	372.22189	83.63953	-1665.64844	413.50427	84.78321	-1660.33374	371.93777	79.14885	-1653.38721	106.05120	133.41005	-1693.13733	132.42761	215.77635	-1601.08142	77.87949	189.40981	-1807.02319	69.38090	198.33069	-1831.14612	92.47510	140.73917	-1765.83704	51.94360	89.05524
